<svg viewBox="0 0 1200 900" xmlns="http://www.w3.org/2000/svg">
    <!-- Main Memory Chamber -->
    <rect x="100" y="50" width="1000" height="800" fill="#f8f8ff" stroke="#000" stroke-width="2"/>
    
    <!-- Quantum Memory Banks -->
    <g transform="translate(150,100)">
        <rect width="300" height="200" fill="#e6e6fa" stroke="#000"/>
        <text x="70" y="100" font-size="16">Quantum Memory Array</text>
        <!-- Individual Memory Cells -->
        <g transform="translate(20,20)">
            <rect width="40" height="40" fill="#9370db" stroke="#000"/>
            <rect x="60" width="40" height="40" fill="#9370db" stroke="#000"/>
            <rect x="120" width="40" height="40" fill="#9370db" stroke="#000"/>
            <rect x="180" width="40" height="40" fill="#9370db" stroke="#000"/>
        </g>
    </g>
    
    <!-- Neural Storage -->
    <g transform="translate(150,350)">
        <rect width="300" height="200" fill="#98fb98" stroke="#000"/>
        <text x="80" y="100" font-size="16">Neural Storage Banks</text>
        <!-- Storage Modules -->
        <g transform="translate(20,20)">
            <rect width="60" height="60" fill="#90ee90" stroke="#000"/>
            <rect x="80" width="60" height="60" fill="#90ee90" stroke="#000"/>
            <rect x="160" width="60" height="60" fill="#90ee90" stroke="#000"/>
        </g>
    </g>
    
    <!-- Interconnect System -->
    <g transform="translate(500,100)">
        <path d="M 0 100 L 200 100" stroke="#4169e1" stroke-width="3"/>
        <path d="M 0 350 L 200 350" stroke="#4169e1" stroke-width="3"/>
        <text x="50" y="90" font-size="12">Quantum Interconnect</text>
        <text x="50" y="340" font-size="12">Neural Pathways</text>
    </g>
    
    <!-- Personal Notes -->
    <g transform="translate(750,100)">
        <rect width="300" height="600" fill="#fff8dc" stroke="#000"/>
        <text x="20" y="30" font-size="12" font-style="italic">Personal Notes:</text>
        <text x="20" y="60" font-size="10">Each memory needs perfect preservation</text>
        <text x="20" y="80" font-size="10">Like Lily's first piano recital...</text>
        <text x="20" y="120" font-size="10">Temperature sensitivity critical</text>
        <text x="20" y="140" font-size="10">Monitor quantum coherence hourly</text>
    </g>
</svg>
