<svg viewBox="0 0 1200 900" xmlns="http://www.w3.org/2000/svg">
    <!-- Main Quantum Chamber -->
    <rect x="200" y="100" width="800" height="600" fill="#f0f8ff" stroke="#000" stroke-width="2"/>
    
    <!-- Quantum Core -->
    <rect x="300" y="200" width="600" height="400" fill="#e6e6fa" stroke="#000"/>
    
    <!-- Qubit Array -->
    <g transform="translate(350,250)">
        <circle cx="30" cy="30" r="15" fill="#4169e1"/>
        <circle cx="90" cy="30" r="15" fill="#4169e1"/>
        <circle cx="150" cy="30" r="15" fill="#4169e1"/>
        <circle cx="30" cy="90" r="15" fill="#4169e1"/>
        <circle cx="90" cy="90" r="15" fill="#4169e1"/>
        <circle cx="150" cy="90" r="15" fill="#4169e1"/>
        
        <!-- Quantum Connections -->
        <path d="M 30 30 L 90 30 L 150 30" stroke="#00ff00" stroke-width="1" fill="none"/>
        <path d="M 30 90 L 90 90 L 150 90" stroke="#00ff00" stroke-width="1" fill="none"/>
        <path d="M 30 30 L 30 90" stroke="#00ff00" stroke-width="1" fill="none"/>
        <path d="M 90 30 L 90 90" stroke="#00ff00" stroke-width="1" fill="none"/>
        <path d="M 150 30 L 150 90" stroke="#00ff00" stroke-width="1" fill="none"/>
    </g>
    
    <!-- Cooling Systems -->
    <path d="M 200 150 L 1000 150" stroke="#00bfff" stroke-width="4"/>
    <path d="M 200 650 L 1000 650" stroke="#00bfff" stroke-width="4"/>
    
    <!-- Shield Layers -->
    <rect x="190" y="90" width="820" height="620" fill="none" stroke="#808080" stroke-width="1" stroke-dasharray="5,5"/>
    <rect x="180" y="80" width="840" height="640" fill="none" stroke="#808080" stroke-width="1" stroke-dasharray="5,5"/>
    
    <!-- Annotations -->
    <text x="50" y="150" font-size="12" fill="#666">Note: Keep temperature at -273.14°C</text>
    <text x="50" y="170" font-size="12" fill="#666">Critical: Monitor quantum coherence</text>
    <text x="50" y="190" font-size="12" fill="#666">Check shield integrity daily</text>
    
    <!-- Technical Labels -->
    <text x="350" y="230" font-size="14">Quantum Core Array</text>
    <text x="200" y="140" font-size="12">Primary Cooling Loop</text>
    <text x="200" y="670" font-size="12">Secondary Cooling Loop</text>
    <text x="300" y="100" font-size="12">Magnetic Shielding Layer</text>
</svg>
