<svg viewBox="0 0 1000 800" xmlns="http://www.w3.org/2000/svg">
    <!-- Quantum Chamber -->
    <rect x="200" y="100" width="600" height="400" fill="#f0f8ff" stroke="#000" stroke-width="2"/>
    
    <!-- QPU Core -->
    <rect x="350" y="200" width="300" height="200" fill="#add8e6" stroke="#000"/>
    <text x="440" y="300" font-size="16">QPU Core</text>
    
    <!-- Qubit Array -->
    <g transform="translate(380,220)">
        <circle cx="20" cy="20" r="10" fill="#4169e1"/>
        <circle cx="50" cy="20" r="10" fill="#4169e1"/>
        <circle cx="80" cy="20" r="10" fill="#4169e1"/>
        <circle cx="20" cy="50" r="10" fill="#4169e1"/>
        <circle cx="50" cy="50" r="10" fill="#4169e1"/>
        <circle cx="80" cy="50" r="10" fill="#4169e1"/>
    </g>
    
    <!-- Cooling Interfaces -->
    <path d="M 200 150 L 800 150" stroke="#00bfff" stroke-width="4"/>
    <path d="M 200 450 L 800 450" stroke="#00bfff" stroke-width="4"/>
    
    <!-- Control Lines -->
    <path d="M 350 400 L 250 600" stroke="#32cd32" stroke-width="2"/>
    <path d="M 650 400 L 750 600" stroke="#32cd32" stroke-width="2"/>
    
    <!-- Shield Layers -->
    <rect x="190" y="90" width="620" height="420" fill="none" stroke="#808080" stroke-width="1" stroke-dasharray="5,5"/>
    <rect x="180" y="80" width="640" height="440" fill="none" stroke="#808080" stroke-width="1" stroke-dasharray="5,5"/>
    
    <!-- Labels -->
    <text x="400" y="140" font-size="12">Primary Cooling Interface</text>
    <text x="400" y="480" font-size="12">Secondary Cooling Interface</text>
    <text x="200" y="580" font-size="12">Control Lines</text>
    <text x="150" y="50" font-size="14">Magnetic Shielding</text>
</svg>
